PathFileType	4	(X/Y/Z)	c:\Git\powerlifing_model_clean\simulations\HC835B\Session1\HC835B_STD_0001\marker_experimental.trc
DataRate	CameraRate	NumFrames	NumMarkers	Units	OrigDataRate	OrigDataStartFrame	OrigNumFrames
240.000000	240.000000	4	48	mm	240.000000	252	337
Frame#	Time	RPSI			LPSI			RASI			LASI			RGT			RTH1			RTH2			RTH3			RTH4			RLK			RMK			RSK1			RSK2			RSK3			RSK4			RLA			RMA			RCAL1			RCAL2			RCAL3			RST			RPT			RTN			RFMB			RSMB			RVMB			RFMH			RSMH			RVMH			RPM			LGT			LTH1			LTH2			LTH3			LTH4			LLK			LMK			LSK1			LSK2			LSK3			LSK4			LLA			LMA			LCAL1			LCAL2			LCAL3			LFMH			LVMH			
		X1	Y1	Z1	X2	Y2	Z2	X3	Y3	Z3	X4	Y4	Z4	X5	Y5	Z5	X6	Y6	Z6	X7	Y7	Z7	X8	Y8	Z8	X9	Y9	Z9	X10	Y10	Z10	X11	Y11	Z11	X12	Y12	Z12	X13	Y13	Z13	X14	Y14	Z14	X15	Y15	Z15	X16	Y16	Z16	X17	Y17	Z17	X18	Y18	Z18	X19	Y19	Z19	X20	Y20	Z20	X21	Y21	Z21	X22	Y22	Z22	X23	Y23	Z23	X24	Y24	Z24	X25	Y25	Z25	X26	Y26	Z26	X27	Y27	Z27	X28	Y28	Z28	X29	Y29	Z29	X30	Y30	Z30	X31	Y31	Z31	X32	Y32	Z32	X33	Y33	Z33	X34	Y34	Z34	X35	Y35	Z35	X36	Y36	Z36	X37	Y37	Z37	X38	Y38	Z38	X39	Y39	Z39	X40	Y40	Z40	X41	Y41	Z41	X42	Y42	Z42	X43	Y43	Z43	X44	Y44	Z44	X45	Y45	Z45	X46	Y46	Z46	X47	Y47	Z47	X48	Y48	Z48	

253	1.05	495.1695861816407	1162.750854492188	-359.0086364746094	386.6429748535157	1160.193603515625	-355.3742370605469	555.0682373046876	1105.033081054688	-562.8153686523439	315.8073730468751	1100.658203125	-560.4866333007814	637.3135375976564	1023.903442382813	-454.0642089843751	639.6102905273439	836.2901611328127	-464.1025390625001	627.6538696289064	819.106140136719	-521.2304687500001	629.9426879882814	753.4359741210939	-478.7120361328126	606.7660522460939	737.0690307617189	-529.9247436523439	609.2858276367189	552.6898193359376	-459.6727905273439	483.5904235839845	538.6307373046876	-449.4279174804689	612.9892578125001	307.6703186035157	-361.9141235351563	615.0361938476564	287.9767761230469	-420.2421875000001	611.4104614257814	249.7933654785157	-372.8865051269532	600.4099121093751	231.821029663086	-428.8391113281251	605.3587646484376	114.8741912841797	-359.6737670898438	521.9838256835939	124.2611312866211	-404.5599670410157	560.3075561523439	95.80709075927736	-304.9927062988282	528.6906127929689	58.44544982910158	-314.5229187011719	592.9014282226564	59.09307098388673	-308.9054565429688	517.3906860351564	76.40670013427736	-380.8876342773438	618.2340698242189	72.31775665283205	-367.2718200683594	530.4862670898439	94.55040740966798	-438.5860900878907	537.0359497070314	78.12566375732423	-469.6389465332032	586.2854003906251	101.7293014526367	-477.6679077148439	632.1670532226564	47.72374725341798	-410.3055725097657	537.3290405273439	50.58216857910158	-527.4911499023439	592.0206298828126	65.56575012207033	-537.7059936523439	648.2804565429689	42.22701263427735	-490.5999450683595	582.6631469726564	53.04193115234376	-596.9838256835939	244.7064208984376	1012.885864257813	-448.5231933593751	239.1229095458985	830.9441528320315	-446.925018310547	242.2077789306641	813.4968261718752	-505.0669250488282	243.1205291748047	746.2537231445314	-459.9220275878907	263.0508117675782	730.8300170898439	-515.6764526367189	265.6363220214844	564.1608886718751	-443.6890258789064	396.679168701172	553.6458740234376	-444.7615661621095	257.5566406250001	300.5949096679688	-355.4815368652344	251.3778076171876	279.3759155273438	-403.977752685547	257.2948303222657	245.2266998291016	-368.5852966308594	267.5496826171876	225.7838592529297	-420.6835021972657	259.4525756835938	115.6130752563477	-363.4935302734376	349.4449462890626	123.845817565918	-401.0502319335939	306.7563476562501	95.11696624755861	-303.5163574218751	275.8932189941407	58.5093231201172	-303.6702880859376	334.2494812011719	56.70267486572267	-308.1209716796876	344.6871643066407	55.06186676025392	-530.7683715820314	229.6908721923829	41.47547912597657	-493.0220947265626	
254	1.054166666666667	495.1660156250001	1162.767822265625	-359.0394287109376	386.6468811035157	1160.189331054688	-355.3995361328126	555.0515136718751	1105.016235351563	-562.8261718750001	315.8363952636719	1100.643798828125	-560.4963378906251	637.3192749023439	1023.898193359375	-454.0924377441407	639.5957641601564	836.2715454101565	-464.1295471191407	627.6622314453126	819.1002197265627	-521.2341308593751	629.9313964843751	753.4295043945314	-478.7322082519532	606.7672729492189	737.0366210937501	-529.9511108398439	609.2987670898439	552.6970214843751	-459.6969604492189	483.5831604003907	538.6309814453126	-449.4447326660157	613.0051879882814	307.6925354003907	-361.9298706054688	615.0902709960939	288.0070495605469	-420.262420654297	611.4096679687501	249.7936553955079	-372.8699340820313	600.4259033203126	231.8507690429688	-428.8438110351564	605.3202514648439	114.9165954589844	-359.6221313476563	521.9918212890626	124.2637634277344	-404.5708007812501	560.3224487304689	95.8015823364258	-304.9847106933594	528.7295532226564	58.46836853027345	-314.5171508789063	592.9012451171876	59.10790252685548	-308.9025878906251	517.4112548828126	76.41738891601564	-380.8533325195313	618.2319335937501	72.30338287353517	-367.2971496582032	530.5028076171876	94.53835296630861	-438.5833129882814	537.0450439453126	78.09815979003908	-469.6170654296876	586.2603759765626	101.7118377685547	-477.6742248535157	632.2094116210939	47.72217559814454	-410.3210754394532	537.2783203125001	50.711238861084	-527.4428100585939	592.0209350585939	65.57396697998048	-537.6906738281251	648.2777099609376	42.21227645874024	-490.6203613281251	582.6442260742189	53.04291152954103	-596.9853515625001	244.7265167236329	1012.901733398438	-448.5346984863282	239.1391143798829	830.9273681640627	-446.9241638183595	242.2140350341797	813.4890747070315	-505.0829467773439	243.1652069091797	746.2722167968751	-459.9172668457032	263.0035400390626	730.6997680664064	-515.6646118164064	265.6676330566407	564.1553955078126	-443.6960754394532	396.674774169922	553.6868896484376	-444.7496032714845	257.5823364257813	300.5824279785157	-355.4999694824219	251.3746948242188	279.3838195800782	-404.0049743652345	257.3164367675782	245.2269592285157	-368.6146240234376	267.5579833984376	225.7936401367188	-420.7141418457032	259.4541931152344	115.5866394042969	-363.5006713867188	349.4559631347657	123.8431549072266	-401.0492248535157	306.7349243164063	95.1074905395508	-303.5120239257813	275.8988647460938	58.51548767089845	-303.6791992187501	334.2442932128907	56.69994354248048	-308.1112365722657	344.6777648925782	55.09203338623048	-530.7797241210939	229.7049713134766	41.43798446655274	-493.0333557128907	
255	1.058333333333333	495.1784057617189	1162.771606445313	-359.0380249023438	386.6706848144532	1160.200805664063	-355.4118957519532	555.0350341796876	1105.01416015625	-562.8626098632814	315.8291320800782	1100.670654296875	-560.5158691406251	637.2915039062501	1023.89208984375	-454.1220703125001	639.6296997070314	836.2771606445315	-464.1336364746095	627.6589965820314	819.0765380859377	-521.2526855468751	629.9266967773439	753.4186401367189	-478.7322387695314	606.7564086914064	737.0386352539064	-529.9869384765626	609.2924804687501	552.6891479492189	-459.6975402832032	483.5781860351564	538.6179809570314	-449.4613647460939	612.9977416992189	307.6638488769532	-361.9523925781251	615.0659790039064	288.0177917480469	-420.2671813964845	611.4102783203126	249.8160705566407	-372.8784484863282	600.4234008789064	231.831527709961	-428.8670959472657	605.3417968750001	114.9065170288086	-359.6552734375001	521.9865722656251	124.2583084106446	-404.5610656738282	560.3353271484376	95.80931091308595	-305.0054016113282	528.7207031250001	58.44756317138673	-314.5230407714844	592.8876953125001	59.0831985473633	-308.9070129394532	517.4099731445314	76.39093017578126	-380.8653259277344	618.2294311523439	72.28829956054689	-367.2969970703126	530.4764404296876	94.5134735107422	-438.5831298828126	537.0163574218751	78.13550567626955	-469.6193237304689	586.2839965820314	101.7314987182617	-477.6691284179689	632.1289672851564	47.70598983764649	-410.319549560547	537.2617187500001	50.59242248535158	-527.4793090820314	591.9899902343751	65.59294891357423	-537.6822509765626	648.2766723632814	42.2129249572754	-490.6107177734376	582.6549072265626	53.04066467285158	-596.9873046875001	244.7246704101563	1012.875671386719	-448.584442138672	239.1466979980469	830.925476074219	-446.9320678710939	242.2395019531251	813.4888916015627	-505.0881958007814	243.1990661621094	746.2061157226564	-459.9289550781251	263.0382690429688	730.7952880859376	-515.6825561523439	265.6775207519532	564.1546630859376	-443.7275695800782	396.6761474609376	553.6790161132814	-444.7898559570314	257.5589904785157	300.5683288574219	-355.5060119628907	251.3872680664063	279.3833618164063	-403.9984130859376	257.3365783691407	245.2435607910157	-368.6110534667969	267.5437316894532	225.8406219482422	-420.6942138671876	259.4625244140626	115.5801391601563	-363.5156250000001	349.4567565917969	123.8381271362305	-401.0410156250001	306.7440185546876	95.1454315185547	-303.4871826171876	275.8887329101563	58.52533340454103	-303.6916809082032	334.2323608398438	56.69636917114259	-308.1274108886719	344.6818237304688	55.07355117797853	-530.7765502929689	229.7072296142579	41.45444107055665	-493.0457153320314	
256	1.0625	495.1846923828126	1162.754516601563	-359.0670776367188	386.6572570800782	1160.19140625	-355.4316101074219	555.0424194335939	1105.00927734375	-562.8620605468751	315.8433227539063	1100.646728515625	-560.5399169921876	637.3213500976564	1023.896423339844	-454.1377868652345	639.5950317382814	836.2769775390627	-464.1562805175782	627.6727294921876	819.1129150390627	-521.2937011718751	629.9574584960939	753.4086303710939	-478.7767028808595	606.8128051757814	737.0449829101564	-529.9757080078126	609.2856445312501	552.6768188476564	-459.735321044922	483.572235107422	538.6173706054689	-449.467010498047	613.0029296875001	307.6653442382813	-361.9632263183594	615.0788574218751	287.9984436035157	-420.2703247070314	611.3979492187501	249.8250579833985	-372.9040222167969	600.4138793945314	231.8363037109376	-428.8697814941407	605.3539428710939	114.8602066040039	-359.7315063476563	521.9909057617189	124.2760467529297	-404.5776977539064	560.3123168945314	95.82415008544923	-305.0038146972657	528.7194824218751	58.4652442932129	-314.5205078125001	592.8887329101564	59.10065078735353	-308.8914489746094	517.4169311523439	76.39154052734376	-380.8565368652344	618.2036132812501	72.28513336181642	-367.2933959960938	530.4961547851564	94.54800415039064	-438.5899353027345	537.0178222656251	78.12058258056642	-469.5976562500001	586.2763671875001	101.7123184204102	-477.6776123046876	632.2247924804689	47.75847244262696	-410.3091125488282	537.2645263671876	50.57883071899415	-527.4650878906251	591.9850463867189	65.57313537597658	-537.7008666992189	648.3098754882814	42.2491798400879	-490.6151428222657	582.6305541992189	53.0148048400879	-596.9821777343751	244.7196197509766	1012.858703613281	-448.6246032714845	239.1328430175782	830.919128417969	-446.9436340332032	242.232406616211	813.489685058594	-505.1038818359376	243.1383819580079	746.2659301757814	-459.9573669433595	263.0168457031251	730.7627563476564	-515.7048950195314	265.6667175292969	564.1591796875001	-443.746307373047	396.6645812988282	553.6777954101564	-444.8114318847657	257.5719604492188	300.5903320312501	-355.4940795898438	251.3770599365235	279.3771362304688	-404.008026123047	257.3272399902344	245.2390594482422	-368.6228332519532	267.5595092773438	225.801986694336	-420.7509765625001	259.4527893066407	115.6113739013672	-363.5087280273438	349.4794006347657	123.8538513183594	-401.0486450195314	306.7423400878907	95.13268280029298	-303.5295104980469	275.8985900878907	58.51105117797853	-303.6738891601563	334.2405090332032	56.68459701538087	-308.1116027832032	344.6694641113282	55.04329681396486	-530.7736816406251	229.6875457763672	41.48322677612305	-493.056610107422	
